<svg xmlns="http://www.w3.org/2000/svg" xmlns:xlink="http://www.w3.org/1999/xlink" version="1.1" id="Layer_1" x="0px" y="0px" width="100px" height="100px" viewBox="0 0 100 100" enable-background="new 0 0 100 100" xml:space="preserve">
<g>
	<defs>
		<rect id="SVGID_1_" x="-174.808" y="2162.061" width="62.11" height="62.109"/>
	</defs>
	<clipPath id="SVGID_2_">
		<use xlink:href="#SVGID_1_" overflow="visible"/>
	</clipPath>
	<circle clip-path="url(#SVGID_2_)" fill="#000000" stroke="#FFFFFF" stroke-width="4" cx="-143.752" cy="2193.116" r="29.055"/>
</g>
<line fill="#000000" stroke="#FFFFFF" stroke-width="4" stroke-linecap="round" stroke-linejoin="round" x1="-138.445" y1="2204.329" x2="-130.356" y2="2205.323"/>
<g>
	<defs>
		<rect id="SVGID_3_" x="-174.808" y="2162.061" width="62.11" height="62.109"/>
	</defs>
	<clipPath id="SVGID_4_">
		<use xlink:href="#SVGID_3_" overflow="visible"/>
	</clipPath>
	
		<line clip-path="url(#SVGID_4_)" fill="#000000" stroke="#FFFFFF" stroke-width="7" x1="-123.438" y1="2172.211" x2="-165.036" y2="2213.809"/>
</g>
<line fill="#000000" stroke="#FFFFFF" stroke-width="4" stroke-linecap="round" stroke-linejoin="round" x1="-157.499" y1="2182.018" x2="-139.692" y2="2175.704"/>
<g>
	<defs>
		<rect id="SVGID_5_" x="-174.808" y="2162.061" width="62.11" height="62.109"/>
	</defs>
	<clipPath id="SVGID_6_">
		<use xlink:href="#SVGID_5_" overflow="visible"/>
	</clipPath>
	<path clip-path="url(#SVGID_6_)" fill="#000000" d="M-126.272,2199.495c1.957,0,3.543-1.586,3.543-3.543s-1.586-3.545-3.543-3.545   c-1.957,0-3.543,1.588-3.543,3.545S-128.229,2199.495-126.272,2199.495"/>
	<path clip-path="url(#SVGID_6_)" fill="#000000" d="M-147.532,2217.918c3.131,0,5.669-2.537,5.669-5.668s-2.538-5.67-5.669-5.67   c-3.131,0-5.669,2.539-5.669,5.67S-150.663,2217.918-147.532,2217.918"/>
</g>
<line fill="#000000" stroke="#FFFFFF" stroke-width="4" stroke-linecap="round" stroke-linejoin="round" x1="-165.957" y1="2190.991" x2="-161.351" y2="2196.659"/>
<g>
	<defs>
		<rect id="SVGID_7_" x="-174.808" y="2162.061" width="62.11" height="62.109"/>
	</defs>
	<clipPath id="SVGID_8_">
		<use xlink:href="#SVGID_7_" overflow="visible"/>
	</clipPath>
	<path clip-path="url(#SVGID_8_)" fill="#000000" d="M-149.516,2189.715c1.331,0,2.409-1.08,2.409-2.41s-1.078-2.41-2.409-2.41   s-2.409,1.08-2.409,2.41S-150.847,2189.715-149.516,2189.715"/>
</g>
<path d="M73.762,68.372c-0.178,1.451-1.413,2.512-2.836,2.512c-0.118,0-0.235-0.006-0.355-0.02l-11.577-1.423  c-1.568-0.192-2.686-1.623-2.491-3.191c0.194-1.569,1.629-2.675,3.19-2.492L71.27,65.18C72.839,65.373,73.957,66.802,73.762,68.372z   M94.764,50.55C94.764,75.06,74.825,95,50.316,95C25.805,95,5.864,75.06,5.864,50.55c0-24.51,19.941-44.452,44.452-44.452  C74.825,6.099,94.764,26.04,94.764,50.55z M19.267,73.668l54.167-54.166c-6.458-4.821-14.46-7.677-23.118-7.677  c-21.354,0-38.727,17.371-38.727,38.726C11.589,59.208,14.446,67.212,19.267,73.668z M89.039,50.55  c0-9.091-3.155-17.452-8.418-24.064L26.249,80.855c6.614,5.262,14.975,8.42,24.067,8.42C71.667,89.275,89.039,71.901,89.039,50.55z   M58.824,24.67c-0.528-1.491-2.16-2.272-3.654-1.742l-25.487,9.041c-1.491,0.527-2.271,2.163-1.741,3.654  c0.415,1.174,1.519,1.906,2.696,1.906c0.318,0,0.641-0.053,0.957-0.165l25.489-9.041C58.574,27.795,59.353,26.159,58.824,24.67z   M78.197,48.105c-2.801,0-5.071,2.271-5.071,5.073c0,2.8,2.27,5.07,5.071,5.07s5.071-2.271,5.071-5.07  C83.269,50.376,80.999,48.105,78.197,48.105z M47.768,68.391c-4.483,0-8.114,3.634-8.114,8.117c0,4.482,3.631,8.112,8.114,8.112  s8.115-3.63,8.115-8.112C55.883,72.024,52.251,68.391,47.768,68.391z M20.754,45.702c-0.998-1.226-2.802-1.413-4.027-0.417  c-1.228,0.998-1.413,2.801-0.417,4.027l6.594,8.115c0.565,0.695,1.391,1.056,2.223,1.056c0.635,0,1.274-0.21,1.805-0.642  c1.227-0.996,1.414-2.799,0.416-4.027L20.754,45.702z M42.065,38.784c-1.904,0-3.448,1.544-3.448,3.45  c0,1.904,1.544,3.448,3.448,3.448c1.905,0,3.449-1.544,3.449-3.448C45.514,40.328,43.97,38.784,42.065,38.784z"/>
</svg>