<svg xmlns="http://www.w3.org/2000/svg" xmlns:xlink="http://www.w3.org/1999/xlink" version="1.1" id="Layer_1" x="0px" y="0px" width="90px" height="90px" viewBox="0 0 90 90" enable-background="new 0 0 90 90" xml:space="preserve">
<path d="M49.162,31.864c-2.613-9.698-11.446-16.471-21.481-16.471c-12.279,0-22.269,9.99-22.269,22.269  c0,12.28,9.99,22.268,22.269,22.268c9.246,0,17.627-5.836,20.857-14.521c0.118-0.319,0.066-0.676-0.137-0.948  c-0.189-0.253-0.487-0.4-0.801-0.4c-0.023,0-0.047,0.001-0.07,0.002l-10.634,0.748l12.006-11.979  C49.156,32.579,49.255,32.209,49.162,31.864z M38.08,27.591l-10.646,9.2c-0.354,0.306-0.831,0.339-1.061,0.074  c-0.229-0.265-0.127-0.732,0.227-1.038l10.647-9.199c0.354-0.306,0.831-0.339,1.061-0.074C38.536,26.818,38.435,27.285,38.08,27.591  z"/>
<g>
	<path d="M52.537,36.74c0-0.156,0.091-0.373,0.202-0.482l1.959-1.93c0.111-0.109,0.074-0.199-0.081-0.199H52.88   c-0.155,0-0.283-0.127-0.283-0.284V32.36c0-0.156,0.128-0.284,0.283-0.284h5.182c0.155,0,0.283,0.127,0.283,0.284v1.232   c0,0.156-0.092,0.372-0.204,0.48l-2.147,2.067c-0.112,0.108-0.076,0.197,0.079,0.197h2.062c0.155,0,0.283,0.127,0.283,0.284v1.484   c0,0.156-0.128,0.284-0.283,0.284H52.82c-0.155,0-0.283-0.127-0.283-0.284V36.74z"/>
</g>
<g>
	<path d="M60.779,31.089c0-0.156,0.091-0.373,0.202-0.482l2.803-2.76c0.111-0.109,0.074-0.199-0.081-0.199h-2.56   c-0.155,0-0.283-0.127-0.283-0.284v-2.216c0-0.156,0.128-0.284,0.283-0.284h7.231c0.155,0,0.283,0.127,0.283,0.284v1.875   c0,0.156-0.092,0.372-0.204,0.48l-3.06,2.943c-0.112,0.108-0.076,0.197,0.079,0.197h2.999c0.155,0,0.283,0.127,0.283,0.284v2.216   c0,0.156-0.128,0.284-0.283,0.284h-7.41c-0.155,0-0.283-0.127-0.283-0.284V31.089z"/>
</g>
<g>
	<path d="M72.144,25.635c0-0.156,0.091-0.373,0.202-0.482l4.765-4.693c0.111-0.109,0.074-0.199-0.081-0.199h-4.472   c-0.155,0-0.283-0.127-0.283-0.284v-3.919c0-0.156,0.128-0.284,0.283-0.284H84.56c0.155,0,0.283,0.127,0.283,0.284v3.369   c0,0.156-0.092,0.372-0.204,0.48l-5.181,4.985c-0.112,0.108-0.076,0.197,0.079,0.197h5.18c0.155,0,0.283,0.127,0.283,0.284v3.919   c0,0.156-0.128,0.284-0.283,0.284h-12.29c-0.155,0-0.283-0.127-0.283-0.284V25.635z"/>
</g>
<path d="M52.052,54.141c0,1.578-1.277,2.855-2.856,2.855c-1.576,0-2.854-1.277-2.854-2.855c0-1.576,2.048-5,2.854-5  C50.09,49.141,52.052,52.564,52.052,54.141z"/>
<path d="M51.398,82.238V71.256c0-3.119-2.551-5.67-5.669-5.67H12.082c-3.118,0-5.669,2.551-5.669,5.67v10.982H51.398z"/>
</svg>