<svg xmlns="http://www.w3.org/2000/svg" xmlns:xlink="http://www.w3.org/1999/xlink" version="1.1" id="Layer_1" x="0px" y="0px" width="100px" height="100px" viewBox="0 0 100 100" enable-background="new 0 0 100 100" xml:space="preserve">
<rect fill="none" width="100" height="100"/>
<path d="M50,16.809C24.766,16.809,5,27.308,5,40.71v18.58C5,72.692,24.766,83.191,50,83.191S95,72.692,95,59.29V40.71  C95,27.308,75.233,16.809,50,16.809z M50,20.904c22.171,0,40.906,9.07,40.906,19.806c0,0.598-0.081,1.193-0.196,1.781  c-0.048,0.256-0.129,0.51-0.201,0.767c-0.085,0.305-0.184,0.61-0.299,0.914c-0.137,0.348-0.286,0.694-0.466,1.04  c-0.081,0.162-0.175,0.324-0.265,0.484c-0.243,0.429-0.499,0.856-0.803,1.283C80.66,39.788,66.142,35.391,50,35.391  c-16.143,0-30.657,4.395-38.673,11.585c-0.31-0.429-0.57-0.86-0.815-1.294c-0.085-0.154-0.176-0.31-0.254-0.465  c-0.177-0.348-0.33-0.696-0.467-1.048c-0.117-0.303-0.212-0.608-0.298-0.914c-0.073-0.254-0.153-0.508-0.202-0.762  c-0.116-0.589-0.194-1.185-0.194-1.783C9.096,29.975,27.827,20.904,50,20.904z M85.922,50.017  C78.914,56.207,65.274,60.514,50,60.514s-28.915-4.307-35.925-10.497C21.279,43.575,35.057,39.486,50,39.486  C64.945,39.486,78.722,43.575,85.922,50.017z M90.905,59.29c0,10.735-18.734,19.806-40.906,19.806  c-22.172,0-40.904-9.07-40.904-19.806v-8.509C16.133,59.008,31.591,64.608,50,64.608c18.41,0,33.868-5.601,40.906-13.827V59.29z   M44.716,48.04c-1.002-0.207-2.136-0.442-2.602-0.942c-1.82-1.962-4.872-1.937-6.648-0.109c-0.772,0.476-3.937,2.586-4.093,5.246  c-0.052,0.889,0.222,2.201,1.821,3.414c1.468,1.112,2.672,1.629,3.788,1.629c0.959,0,1.684-0.362,2.386-0.713  c0.724-0.363,1.41-0.709,2.462-0.709c3.646,0,6.035-0.717,6.685-4.296C48.995,48.926,46.42,48.392,44.716,48.04z M46.501,51.193  c-0.352,1.931-1.109,2.616-4.671,2.616c-1.539,0-2.56,0.512-3.38,0.924c-0.576,0.291-0.994,0.498-1.468,0.498  c-0.639,0-1.472-0.397-2.552-1.213c-1.062-0.808-1.026-1.45-1.014-1.663c0.085-1.5,2.412-3.201,3.22-3.679  c0.088-0.051,0.17-0.118,0.238-0.194c0.501-0.551,1.191-0.867,1.892-0.867c0.676,0,1.316,0.303,1.848,0.875  c0.91,0.98,2.385,1.286,3.685,1.555C46.432,50.487,46.592,50.7,46.501,51.193z M54.697,52.876c-0.12,0.487,0.068,0.86,0.247,1.117  c-0.055,0.07-0.141,0.173-0.272,0.305c-1.819,1.834-2.462,3.182-2.021,4.24c0.167,0.406,0.646,1.085,1.952,1.085  c1.524,0,3.945-0.954,6.474-2.536c5.876-2.291,8.771-4.313,8.601-6.013c-0.146-1.458-1.978-1.781-2.593-1.886  c-1.674-0.279-2.759,0.015-3.805,0.295c-0.486,0.13-0.995,0.269-1.584,0.346c-1.61,0.171-2.613,0.361-4.855,1.36  C55.525,51.778,54.872,52.18,54.697,52.876z M57.674,53.06c1.994-0.888,2.784-1.04,4.262-1.195c0.717-0.094,1.311-0.25,1.874-0.401  c0.952-0.252,1.742-0.448,2.934-0.257c0.351,0.063,0.581,0.126,0.735,0.182c-0.795,0.865-3.912,2.532-7.312,3.875  c-2.694,1.661-4.586,2.283-5.495,2.313c0.149-0.313,0.524-0.9,1.447-1.829c0.828-0.822,1.11-1.587,0.833-2.341  C57.118,53.318,57.354,53.205,57.674,53.06z M45.82,43.887c-0.366,1.413,1.273,2.532,2.592,3.248  c2.287,1.866,4.052,2.733,5.555,2.733c1.529,0,2.473-0.874,3.232-1.576c0.662-0.613,1.102-0.989,1.776-1.023  c0.961-0.092,1.956-0.188,2.268-1.053c0.299-0.839-0.38-1.516-0.858-1.994c-0.58-0.534-1.264-0.762-1.921-0.984  c-0.376-0.126-0.77-0.252-1.153-0.465c-0.068-0.039-0.141-0.068-0.218-0.09c-0.41-0.117-0.765-0.232-1.067-0.331  c-0.684-0.22-1.132-0.365-1.571-0.365c-0.048,0-0.129,0.008-0.21,0.017c-0.26-0.011-1.024-0.045-1.975-0.045  C47.027,41.959,46.068,42.933,45.82,43.887z M52.27,44.007c1.104,0,1.94,0.047,1.953,0.047c0.111,0.006,0.115,0.013,0.227-0.02  c0.137,0.007,0.568,0.143,0.948,0.269c0.295,0.094,0.632,0.203,1.021,0.316c0.491,0.256,0.97,0.418,1.396,0.562  c0.132,0.044,0.265,0.087,0.389,0.132c-1.055,0.239-1.785,0.914-2.392,1.475c-0.713,0.66-1.153,1.031-1.845,1.031  c-0.978,0-2.412-0.764-4.409-2.374c-0.852-0.474-1.296-0.813-1.525-1.023C48.598,44.229,49.881,44.007,52.27,44.007z"/>
</svg>