<svg xmlns="http://www.w3.org/2000/svg" xmlns:xlink="http://www.w3.org/1999/xlink" version="1.1" id="Layer_1" x="0px" y="0px" width="90px" height="90px" viewBox="0 0 90 90" enable-background="new 0 0 90 90" xml:space="preserve">
<path fill="#ffffff" d="M46.01,45.288v-4.225c4.543-0.247,9.007-2.105,12.475-5.573c7.471-7.464,7.471-19.576,0-27.046  c-2.549-2.549-5.633-4.222-8.893-5.034l0.171-0.771c4.702,0.919,9.19,3.2,12.83,6.841c7.285,7.279,9.119,17.947,5.508,26.937  c12.358,1.481,21.938,12.001,21.938,24.756c0,5.149-1.557,9.934-4.231,13.91l-0.666-0.424c1.729-2.876,2.723-6.246,2.723-9.852  c0-10.559-8.561-19.123-19.122-19.123c-6.421,0-12.105,3.167-15.572,8.022l-3.485-2.043c0.165-0.491,0.253-1.016,0.253-1.566  C49.937,47.725,48.254,45.742,46.01,45.288L46.01,45.288z M48.694,53.361l3.41,2.006c-1.583,2.785-2.486,6.008-2.486,9.439  c0,10.562,8.562,19.126,19.123,19.126c3.603,0,6.973-0.996,9.849-2.727l0.427,0.665c-3.978,2.677-8.763,4.235-13.909,4.235  c-8.278,0-15.611-4.03-20.144-10.236c-4.539,6.206-11.872,10.236-20.145,10.236c-5.146,0-9.934-1.563-13.908-4.235l0.425-0.665  c2.875,1.73,6.242,2.727,9.848,2.727c10.562,0,19.122-8.564,19.122-19.126c0-3.424-0.899-6.642-2.476-9.421l3.528-2.033  c0.897,1.016,2.21,1.656,3.671,1.656S47.796,54.372,48.694,53.361L48.694,53.361z M31.44,35.489c3.5,3.501,8.024,5.361,12.61,5.577  v4.221c-2.243,0.454-3.929,2.437-3.929,4.809c0,0.545,0.089,1.065,0.253,1.556L36.74,53.68c-3.474-4.841-9.149-7.996-15.556-7.996  c-10.563,0-19.126,8.564-19.126,19.123c0,3.602,0.997,6.976,2.728,9.852l-0.664,0.424c-2.678-3.977-4.238-8.761-4.238-13.91  c0-12.755,9.58-23.275,21.94-24.756c-3.612-8.989-1.776-19.657,5.506-26.937c3.641-3.641,8.129-5.921,12.832-6.841l0.17,0.771  c-3.258,0.813-6.347,2.485-8.892,5.034C23.973,15.914,23.973,28.025,31.44,35.489L31.44,35.489z"/>
<path fill="#ffffff" fill-rule="evenodd" clip-rule="evenodd" d="M69.966,50.097c0,10.724-6.769,19.862-16.263,23.387  c-1.102-1.91-1.853-4.046-2.162-6.323c6.869-2.624,11.743-9.272,11.743-17.063c0-0.586-0.03-1.17-0.082-1.743  c1.741-0.588,3.602-0.904,5.539-0.904c0.366,0,0.73,0.015,1.088,0.035C69.915,48.343,69.966,49.215,69.966,50.097L69.966,50.097z   M45.029,25.166c5.705,0,10.964,1.914,15.166,5.138c-0.775,1.41-1.762,2.738-2.957,3.937c-0.427,0.426-0.87,0.826-1.327,1.198  c-3.036-2.261-6.802-3.596-10.881-3.596c-4.108,0-7.897,1.356-10.95,3.646c-0.48-0.385-0.944-0.804-1.392-1.249  c-1.177-1.178-2.149-2.478-2.914-3.868C33.989,27.108,39.284,25.166,45.029,25.166L45.029,25.166z M26.854,48.398  c-0.054,0.56-0.079,1.127-0.079,1.698c0,7.741,4.813,14.356,11.613,17.011c-0.303,2.281-1.044,4.422-2.143,6.333  c-9.438-3.551-16.15-12.661-16.15-23.344c0-0.884,0.045-1.758,0.138-2.621c0.314-0.016,0.628-0.026,0.951-0.026  C23.166,47.449,25.075,47.782,26.854,48.398L26.854,48.398z"/>
</svg>