<svg xmlns="http://www.w3.org/2000/svg" xmlns:xlink="http://www.w3.org/1999/xlink" version="1.1" x="0px" y="0px" width="100px" height="100px" viewBox="0 0 100 100" enable-background="new 0 0 100 100" xml:space="preserve">
<g id="Captions">
</g>
<g id="Your_Icon">
	<path d="M44.92,11.317c5.155,4.704,9.073,9.238,12.979,15.026c0.369,0.548,1.138,0.708,1.696,0.331   c0.562-0.377,0.709-1.138,0.332-1.698c-0.43-0.634-0.858-1.249-1.288-1.856c2.501-3.474,2.409-8.323-0.513-11.706   c-2.998-3.471-7.958-4.224-11.806-2.054c-0.482-0.263-1.093-0.195-1.48,0.23c-0.421,0.462-0.422,1.16-0.023,1.622   C44.85,11.248,44.883,11.283,44.92,11.317z"/>
	<path d="M49.397,27.184c2.367,0,4.485-1.042,5.938-2.687c-3.137-4.347-6.387-8.005-10.427-11.764   c-2.074,1.429-3.434,3.818-3.434,6.526C41.474,23.636,45.021,27.184,49.397,27.184z"/>
	<path d="M98.205,85.412L75.923,63.13c-1.424-1.424-3.733-1.425-5.158,0L60.531,73.364L44.372,60.04   c0.192-0.864,0.127-1.793-0.276-2.657l-5.188-11.128l6.768-9.355c1.35-1.865,0.932-4.472-0.933-5.821   c-0.02-0.014-0.042-0.021-0.061-0.036L33.433,17.87H9.863v13.712L3.895,26.66c-0.888-0.732-2.201-0.606-2.934,0.282   c-0.732,0.888-0.606,2.201,0.282,2.934l8.621,7.108v7.203l-2.432,2.715v1.536v18.073L1.616,86.527   c-0.644,2.21,0.629,4.523,2.839,5.165c0.389,0.113,0.779,0.167,1.165,0.167c1.806,0,3.471-1.185,4-3.006l5.982-20.585   c0.113-0.39,0.146-0.778,0.146-1.164h0.018V50.676l0.622-0.397l11.064,13.518L15.255,85.659c-1.122,2.01-0.402,4.549,1.608,5.671   c0.643,0.358,1.341,0.529,2.028,0.529c1.462,0,2.881-0.771,3.644-2.138l13.581-24.339c0.857-1.537,0.631-3.381-0.42-4.667   l0.006-0.004l-6.095-7.445l5.477,4.517l1.457,3.123c0.708,1.517,2.21,2.408,3.78,2.408c0.407,0,0.815-0.085,1.218-0.209   l16.03,13.22l-2.738,2.738l-4.5-4.5c-1.424-1.424-3.734-1.425-5.158,0l-11.071,11.07c-1.043,1.043-1.355,2.611-0.791,3.974   c0.564,1.364,1.894,2.252,3.369,2.252h14.159h7.983c0.007-0.001,0.013-0.001,0.021,0h37.004c0.008-0.001,0.015-0.001,0.021,0   c2.015,0,3.647-1.633,3.647-3.647C99.516,87.087,99.006,86.08,98.205,85.412z M18.2,26.207h7.766L18.2,34.878V26.207z    M30.99,49.004l-5.502-4.538l8.228-5.257l-4.435,6.13L30.99,49.004z"/>
</g>
</svg>