<svg xmlns="http://www.w3.org/2000/svg" xmlns:xlink="http://www.w3.org/1999/xlink" version="1.1" id="Layer_1" x="0px" y="0px" width="40px" height="40px" viewBox="0 0 40 40" enable-background="new 0 0 40 40" xml:space="preserve">
<g>
	<path fill="#ffffff" d="M-29.688,0.689c-4.205-4.204-11.355-3.896-15.938,0.688l-19.724,19.723c-4.583,4.583-4.892,11.733-0.688,15.938   c4.205,4.205,11.355,3.896,15.938-0.688l19.725-19.722C-25.792,12.043-25.484,4.893-29.688,0.689z M-31.883,15.12l-9.862,9.861   L-53.98,12.747l9.862-9.863c3.758-3.757,9.543-4.064,12.922-0.686C-27.818,5.576-28.125,11.362-31.883,15.12z"/>
	<path fill="#ffffff" d="M-11.932,22.678c-3.507-3.506-8.957-3.864-12.874-1.093l13.966,13.965C-8.068,31.637-8.426,26.185-11.932,22.678z"/>
	<path fill="#ffffff" d="M-26.118,36.865c3.506,3.506,8.958,3.863,12.873,1.092l-13.966-13.966C-29.983,27.907-29.625,33.357-26.118,36.865z"/>
</g>
<g>
	<path fill="#ffffff" d="M26.208,6.747c-2.803-2.803-7.57-2.597-10.626,0.458L2.433,20.354c-3.056,3.055-3.261,7.822-0.458,10.625   c2.803,2.803,7.57,2.598,10.625-0.458l13.15-13.148C28.805,14.317,29.01,9.55,26.208,6.747z M24.745,16.368l-6.575,6.574   l-8.157-8.156l6.575-6.576c2.505-2.504,6.362-2.71,8.615-0.457C27.455,10.005,27.249,13.862,24.745,16.368z"/>
	<path fill="#ffffff" d="M38.045,21.407c-2.338-2.337-5.972-2.576-8.582-0.729l9.311,9.31C40.622,27.379,40.383,23.745,38.045,21.407z"/>
	<path fill="#ffffff" d="M28.588,30.865c2.337,2.337,5.972,2.576,8.582,0.728l-9.311-9.311C26.011,24.892,26.25,28.526,28.588,30.865z"/>
</g>
<g>
	<path fill="#ffffff" d="M67.656,9.776c-2.102-2.102-5.677-1.948-7.969,0.344l-9.862,9.861c-2.292,2.291-2.446,5.867-0.344,7.969   c2.102,2.103,5.677,1.948,7.969-0.344l9.862-9.861C69.604,15.453,69.758,11.878,67.656,9.776z M66.558,16.991l-4.931,4.931   l-6.118-6.117l4.931-4.932c1.879-1.878,4.771-2.032,6.461-0.343C68.591,12.219,68.437,15.112,66.558,16.991z"/>
	<path fill="#ffffff" d="M76.534,20.771c-1.753-1.753-4.478-1.932-6.436-0.546l6.983,6.983C78.466,25.25,78.287,22.524,76.534,20.771z"/>
	<path fill="#ffffff" d="M69.441,27.864c1.753,1.753,4.479,1.932,6.437,0.546l-6.983-6.983C67.508,23.385,67.687,26.11,69.441,27.864z"/>
</g>
<g>
	<path fill="#ffffff" d="M97.104,12.805c-1.401-1.401-3.785-1.299-5.313,0.229l-6.575,6.574c-1.527,1.528-1.63,3.911-0.229,5.313   c1.402,1.402,3.785,1.299,5.313-0.229l6.575-6.574C98.403,16.59,98.505,14.207,97.104,12.805z M96.372,17.615l-3.287,3.287   l-4.078-4.078l3.287-3.288c1.253-1.252,3.181-1.355,4.307-0.229C97.727,14.434,97.625,16.363,96.372,17.615z"/>
	<path fill="#ffffff" d="M103.022,20.135c-1.169-1.169-2.986-1.288-4.291-0.364l4.655,4.655C104.31,23.121,104.191,21.304,103.022,20.135z"/>
	<path fill="#ffffff" d="M98.294,24.864c1.169,1.168,2.986,1.288,4.291,0.364l-4.655-4.655C97.006,21.877,97.125,23.694,98.294,24.864z"/>
</g>
</svg>