<svg xmlns="http://www.w3.org/2000/svg" xmlns:xlink="http://www.w3.org/1999/xlink" version="1.1" id="Layer_1" x="0px" y="0px" width="100px" height="100px" viewBox="0 0 100 100" enable-background="new 0 0 100 100" xml:space="preserve">
<rect fill="none" width="100" height="100"/>
<path d="M74.142,37.239c-2.15-9.901-2.15-19.938,0-29.835c0.137-0.621-0.035-1.267-0.459-1.746c-0.426-0.474-1.045-0.705-1.685-0.65  c-14.599,1.515-29.399,1.515-43.996,0c-0.635-0.055-1.257,0.176-1.683,0.65c-0.425,0.479-0.596,1.125-0.46,1.746  c2.148,9.897,2.148,19.934,0,29.835c-2.271,10.456-2.271,21.058,0,31.513c0.166,0.764,0.765,1.359,1.529,1.52  c5.545,1.17,11.253,1.888,17.024,2.16c0.066,1.007,0.056,2.32,0.048,3.185c-0.022,2.719-0.002,3.604,0.58,4.1  c0.494,0.428,1.687,0.713,2.962,0.901c0.03,3.491,0.448,10.188,6.157,14.383l2.348-3.201c-4.169-3.063-4.506-8.194-4.533-11.182  c1.271-0.188,2.456-0.47,2.945-0.894c0.587-0.503,0.608-1.389,0.587-4.107c-0.008-0.868-0.019-2.207,0.051-3.218  c5.622-0.298,11.326-1.003,17.025-2.119c0.778-0.155,1.391-0.751,1.559-1.527C76.412,58.297,76.412,47.694,74.142,37.239z   M38.783,39.396c0.908-3.814,1.503-7.825,1.773-11.924h18.888c0.267,4.095,0.862,8.102,1.772,11.924  c1.242,5.228,1.635,10.279,1.194,15.415c-4.324,0.486-8.633,0.733-12.82,0.733H49.59c-4.019,0-8.05-0.227-11.998-0.675  C37.144,49.712,37.535,44.644,38.783,39.396z M61.37,26.427c-0.027-0.529-0.463-0.94-0.992-0.94H39.622  c-0.528,0-0.964,0.411-0.991,0.94c-0.172,3.227-0.551,6.402-1.13,9.47c-2.488,0.143-4.973,0.335-7.453,0.562  c1.278-6.57,1.677-13.191,1.167-19.787c6.158,0.563,12.461,0.86,18.785,0.86c6.323,0,12.625-0.298,18.784-0.86  c-0.51,6.596-0.111,13.216,1.168,19.787c-2.479-0.227-4.963-0.419-7.453-0.562C61.92,32.825,61.54,29.653,61.37,26.427z   M63.12,15.115l0.636-5.488c0.579-0.038,1.158-0.08,1.736-0.122l-0.824,5.513C64.154,15.057,63.636,15.082,63.12,15.115z   M61.108,15.241c-0.504,0.029-1.009,0.05-1.515,0.076l0.449-5.438c0.566-0.025,1.133-0.084,1.699-0.118L61.108,15.241z   M57.597,15.388c-0.923,0.034-1.847,0.071-2.77,0.092c0.76-0.759,1.231-1.783,1.231-2.912c0-0.974-0.354-1.854-0.929-2.572  c0.971-0.021,1.944-0.029,2.915-0.063L57.597,15.388z M51.641,14.813c-1.341,0-2.432-1.007-2.432-2.245  c0-1.242,1.091-2.253,2.432-2.253c1.343,0,2.434,1.011,2.434,2.253C54.074,13.806,52.983,14.813,51.641,14.813z M48.492,15.522  c-0.917-0.004-1.833-0.017-2.749-0.034l-0.276-5.479c0.874,0.021,1.749,0.055,2.624,0.063c-0.538,0.701-0.868,1.561-0.868,2.497  C47.224,13.718,47.709,14.763,48.492,15.522z M43.753,15.438c-0.496-0.013-0.99-0.034-1.486-0.055L41.811,9.93  c0.555,0.021,1.111,0.021,1.667,0.038L43.753,15.438z M40.27,15.309c-0.506-0.021-1.011-0.046-1.515-0.076l-0.644-5.479  c0.568,0.029,1.135,0.088,1.703,0.117L40.27,15.309z M36.741,15.107c-0.517-0.034-1.038-0.059-1.553-0.097l-0.831-5.513  c0.581,0.042,1.16,0.08,1.74,0.117L36.741,15.107z M68.983,14.662c-0.76,0.067-1.519,0.139-2.284,0.202l0.82-5.492  c0.738-0.063,1.479-0.084,2.217-0.151C69.411,11.029,69.174,12.846,68.983,14.662z M32.331,9.359l0.826,5.492  c-0.716-0.059-1.427-0.126-2.141-0.189c-0.19-1.816-0.427-3.633-0.752-5.441C30.952,9.279,31.642,9.304,32.331,9.359z   M54.127,68.483l1.8-1.438c0.163-0.135,0.258-0.311,0.313-0.495c0.585,0.495,1.126,1.065,1.628,1.699  C56.619,68.346,55.368,68.434,54.127,68.483z M54.687,65.492l-2.869,2.299l0.899-3.104c0.011-0.038,0.004-0.075,0.009-0.117  c0.692,0.218,1.354,0.532,1.993,0.91C54.71,65.483,54.697,65.483,54.687,65.492z M49.963,67.053l-0.872-2.832  c0.302-0.033,0.601-0.071,0.909-0.071c0.265,0,0.524,0.038,0.787,0.063L49.963,67.053z M47.153,64.607  c0.006,0.033,0,0.063,0.01,0.096l0.962,3.126l-2.91-2.244c-0.019-0.018-0.044-0.018-0.064-0.03  C45.792,65.165,46.457,64.834,47.153,64.607z M43.667,66.625c0.055,0.201,0.157,0.391,0.337,0.528l1.745,1.348  c-1.222-0.042-2.438-0.118-3.653-0.202C42.582,67.678,43.104,67.111,43.667,66.625z M53.522,75.633  c0.006,0.911,0.017,2.106-0.051,2.64c-0.574,0.201-2.06,0.448-3.488,0.574c-1.445-0.126-2.948-0.377-3.487-0.562  c-0.068-0.529-0.058-1.737-0.051-2.652c0.012-1.179,0.016-2.24-0.039-3.15c1.062,0.029,2.121,0.079,3.187,0.079c0,0,0.001,0,0.002,0  c1.313,0,2.639-0.054,3.965-0.101C53.506,73.376,53.51,74.445,53.522,75.633z M70.529,66.629c-3.451,0.638-6.899,1.12-10.325,1.448  c-2.452-3.73-6.161-5.912-10.204-5.912c-4.066,0-7.787,2.203-10.24,5.966c-3.472-0.327-6.909-0.813-10.286-1.48  c-1.856-9.353-1.789-18.817,0.185-28.166c2.466-0.23,4.937-0.424,7.412-0.57c-0.074,0.34-0.138,0.684-0.218,1.023  c-1.366,5.735-1.745,11.27-1.16,16.925c0.048,0.457,0.408,0.822,0.867,0.881c4.279,0.521,8.662,0.785,13.031,0.785  c4.523,0,9.184-0.281,13.85-0.844c0.461-0.055,0.822-0.42,0.868-0.881c0.579-5.635,0.197-11.152-1.162-16.871  c-0.08-0.336-0.143-0.68-0.219-1.02c2.476,0.146,4.947,0.34,7.412,0.57C72.311,47.824,72.382,57.285,70.529,66.629z M42.614,41.506  c0-1.095,0.89-1.984,1.986-1.984h3.415V36.11c0-1.099,0.889-1.984,1.984-1.984c1.097,0,1.983,0.885,1.983,1.984v3.411H55.4  c1.097,0,1.984,0.889,1.984,1.984c0,1.099-0.888,1.984-1.984,1.984h-3.418v3.416c0,1.099-0.887,1.984-1.983,1.984  c-1.096,0-1.984-0.885-1.984-1.984V43.49H44.6C43.503,43.49,42.614,42.605,42.614,41.506z"/>
</svg>