<?xml version="1.0" encoding="utf-8"?>
<!-- Generator: Adobe Illustrator 16.0.0, SVG Export Plug-In . SVG Version: 6.00 Build 0)  -->
<!DOCTYPE svg PUBLIC "-//W3C//DTD SVG 1.1//EN" "http://www.w3.org/Graphics/SVG/1.1/DTD/svg11.dtd">
<svg version="1.1" id="Layer_1" xmlns="http://www.w3.org/2000/svg" xmlns:xlink="http://www.w3.org/1999/xlink" x="0px" y="0px"
	 width="94.657px" height="100px" viewBox="3.834 -0.729 94.657 100" enable-background="new 3.834 -0.729 94.657 100"
	 xml:space="preserve">
<path fill='#ffffff' d="M52.316,8.83c0,5.279,4.278,9.557,9.554,9.557c5.281,0,9.559-4.279,9.559-9.557c0-5.278-4.277-9.558-9.559-9.558
	C56.595-0.729,52.316,3.552,52.316,8.83z"/>
<path fill='#ffffff' d="M67.075,27.753c1.043,0,1.888-0.843,1.888-1.887c0-1.041-0.845-1.887-1.888-1.887c-1.038,0-1.889,0.846-1.889,1.887
	C65.187,26.91,66.035,27.753,67.075,27.753z"/>
<path fill='#ffffff' d="M79.149,87.519c-1.044,0-1.889,0.845-1.889,1.887c0,1.038,0.845,1.885,1.889,1.885c1.039,0,1.886-0.847,1.886-1.885
	C81.035,88.363,80.188,87.519,79.149,87.519z"/>
<path fill='#ffffff' d="M67.327,43.661c1.386,0,2.516-1.129,2.516-2.516c0-1.391-1.128-2.516-2.516-2.516c-1.39,0-2.519,1.125-2.519,2.516
	C64.807,42.532,65.938,43.661,67.327,43.661z"/>
<path fill='#ffffff' d="M77.073,40.419c2.083,0,3.772-1.689,3.772-3.773c0-2.082-1.689-3.772-3.772-3.772c-2.088,0-3.778,1.69-3.778,3.772
	C73.297,38.73,74.987,40.419,77.073,40.419z"/>
<circle fill='#ffffff' cx="75.322" cy="47.641" r="1.885"/>
<path fill='#ffffff' d="M67.025,54.604c0.002,1.391,1.13,2.515,2.516,2.515c1.388,0,2.515-1.124,2.515-2.515c0-1.392-1.125-2.516-2.515-2.516
	C68.155,52.088,67.025,53.21,67.025,54.604z"/>
<path fill='#ffffff' d="M68.824,62.86c-2.086,0-3.771,1.689-3.771,3.776c0,2.084,1.687,3.772,3.771,3.772s3.776-1.688,3.776-3.772
	C72.601,64.55,70.908,62.86,68.824,62.86z"/>
<path fill='#ffffff' d="M84.567,47.625c-1.39,0-2.516,1.123-2.516,2.516c0,1.389,1.126,2.514,2.516,2.514c1.389,0,2.519-1.125,2.519-2.514
	C87.086,48.747,85.956,47.625,84.567,47.625z"/>
<path fill='#ffffff' d="M82.066,63.619c-1.387,0-2.514,1.122-2.514,2.516c0.002,1.387,1.127,2.517,2.514,2.517c1.391,0,2.519-1.13,2.519-2.517
	C84.585,64.743,83.457,63.619,82.066,63.619z"/>
<circle fill='#ffffff' cx="95.345" cy="68.253" r="3.147"/>
<path fill='#ffffff' d="M63.307,54.12L52.814,42.126l0.452-13.512c0.399-1.085,0.176-7.69,0.176-8.914c0-5.557-4.502-10.059-10.06-10.059
	c-1.263,0-2.464,0.242-3.58,0.668l-3.692,1.967l-22.78,12.359c-3.04,1.84-5.344,2.993-7.418,5.454l-0.078,0.043l0.025,0.026
	c-1.266,1.684-2.025,3.768-2.025,6.038c0,0.314,0.019,0.625,0.048,0.934H3.835l2.516,53.397h0.018
	c-0.005,0.119-0.018,0.241-0.018,0.36c0,4.63,1.407,8.384,6.243,8.384c4.837,0,6.244-3.752,6.244-8.384
	c0-0.165-0.015-0.329-0.026-0.491l2.516-46.286l20.74-10.73v13.247l12.744,14.992l0.099-0.089c1.017,1.376,2.65,2.271,4.495,2.271
	c3.088,0,5.591-2.501,5.591-5.589c0-1.59-0.67-3.027-1.74-4.044L63.307,54.12z"/>
</svg>
